<svg xmlns="http://www.w3.org/2000/svg" fill-rule="evenodd" clip-rule="evenodd" image-rendering="optimizeQuality" shape-rendering="geometricPrecision" text-rendering="geometricPrecision" viewBox="0 0 2333.33 2333.33"><path fill="#d8a353" d="M313.33 1033.78l1706.68 0 0 -299.83c0,-29.04 -11.87,-55.43 -30.98,-74.54 -19.11,-19.11 -45.5,-30.98 -74.54,-30.98 -511.4,0 -985.73,0 -1495.65,0 -29.04,0 -55.43,11.87 -74.54,30.98 -19.11,19.11 -30.98,45.5 -30.98,74.54l0 299.83zm364.24 -202.67l978.2 0c14.73,0 26.67,11.94 26.67,26.67 0,14.73 -11.94,26.67 -26.67,26.67l-978.2 0c-14.73,0 -26.67,-11.94 -26.67,-26.67 0,-14.73 11.94,-26.67 26.67,-26.67z" class="color1a1a1a svgShape"/><path fill="#d8a353" fill-rule="nonzero" d="M896.43 628.43l523.23 0 0-158.13c0-14.32-5.88-27.37-15.35-36.83-9.46-9.46-22.51-15.35-36.83-15.35l-418.88 0c-14.32 0-27.37 5.88-36.83 15.35-9.46 9.46-15.35 22.51-15.35 36.83l0 158.13zm549.9 53.34l-576.57 0c-14.73 0-26.67-11.94-26.67-26.67l0-184.8c0-29.04 11.87-55.43 30.98-74.54 19.11-19.11 45.5-30.98 74.54-30.98l418.88 0c29.04 0 55.43 11.87 74.54 30.98 19.11 19.11 30.98 45.5 30.98 74.54l0 184.8c0 14.73-11.94 26.67-26.67 26.67zM1624.59 1821l183.96 0c14.73 0 26.67 11.94 26.67 26.67l0 94.2c0 14.73-11.94 26.67-26.67 26.67l-183.96 0c-14.73 0-26.67-11.94-26.67-26.67l0-94.2c0-14.73 11.94-26.67 26.67-26.67zM524.78 1821l183.96 0c14.73 0 26.67 11.94 26.67 26.67l0 94.2c0 14.73-11.94 26.67-26.67 26.67l-183.96 0c-14.73 0-26.67-11.94-26.67-26.67l0-94.2c0-14.73 11.94-26.67 26.67-26.67z" class="color1a1a1a svgShape"/><path fill="#d8a353" d="M1914.49 1874.34c29.04,0 55.43,-11.87 74.54,-30.98 19.11,-19.11 30.98,-45.5 30.98,-74.54l0 -681.7 -1706.68 0 0 681.7c0,29.04 11.87,55.43 30.98,74.54 19.11,19.11 45.5,30.98 74.54,30.98 412.24,0 976.37,0 1495.65,0zm-815.77 -695.81l153.15 0c14.73,0 26.67,11.94 26.67,26.67l0 145.62 145.62 0c14.73,0 26.67,11.94 26.67,26.67l0 153.15c0,14.73 -11.94,26.67 -26.67,26.67l-145.62 0 0 145.62c0,14.73 -11.94,26.67 -26.67,26.67l-153.15 0c-14.73,0 -26.67,-11.94 -26.67,-26.67l0 -145.62 -145.62 0c-14.73,0 -26.67,-11.94 -26.67,-26.67l0 -153.15c0,-14.73 11.94,-26.67 26.67,-26.67l145.62 0 0 -145.62c0,-14.73 11.94,-26.67 26.67,-26.67z" class="color1a1a1a svgShape"/></svg>