<svg xmlns="http://www.w3.org/2000/svg" data-name="Layer 1" viewBox="0 0 64 64"><path fill="#34a853" d="M58.18 54.1973H54.9355V20.1211a.2067.2067 0 0 0-.207-.2051H45.7266v7.9219h3.9746c.07 0 .1269.0371.1269.082v3.3926c0 .0449-.0566.082-.1269.082H45.7266v4.0977h3.9746c.07 0 .1269.0391.1269.084v3.3906c0 .0469-.0566.084-.1269.084H45.7266v4.0976h3.9746c.07 0 .1269.0391.1269.084V46.623c0 .0469-.0566.084-.1269.084H45.7266v7.49H44.49V9.793H19.51V54.1973H18.2734v-7.49H14.2988c-.07 0-.1269-.0371-.1269-.084V43.2324c0-.0449.0566-.084.1269-.084h3.9746V39.0508H14.2988c-.07 0-.1269-.0371-.1269-.084V35.5762c0-.0449.0566-.084.1269-.084h3.9746V31.3945H14.2988c-.07 0-.1269-.0371-.1269-.082V27.92c0-.0449.0566-.082.1269-.082h3.9746V19.916H9.27a.205.205 0 0 0-.205.2051V54.1973H5.82a.2067.2067 0 0 0-.207.205v3.4825a.2084.2084 0 0 0 .207.207H58.18a.2084.2084 0 0 0 .207-.207V54.4023A.2067.2067 0 0 0 58.18 54.1973zM38.9063 37.4648h-2.504c-.0332 0-.0625-.0429-.0625-.0937V33.6152c0-.0507.0293-.0937.0625-.0937h2.504c.0351 0 .0625.043.0625.0937v3.7559C38.9688 37.4219 38.9414 37.4648 38.9063 37.4648zm.0625-10.3476V30.873c0 .0508-.0274.0918-.0625.0918h-2.504c-.0332 0-.0625-.041-.0625-.0918V27.1172c0-.0527.0293-.0938.0625-.0938h2.504C38.9414 27.0234 38.9688 27.0645 38.9688 27.1172zM27.0977 16.293a.1371.1371 0 0 1 .1367-.1367h2.9941a.1371.1371 0 0 0 .1367-.1368V13.0254a.1371.1371 0 0 1 .1368-.1367h2.996a.1371.1371 0 0 1 .1368.1367V16.02a.1371.1371 0 0 0 .1367.1368h2.9941a.1371.1371 0 0 1 .1367.1367v2.9941a.1371.1371 0 0 1-.1367.1367H33.7715a.1371.1371 0 0 0-.1367.1367v2.9942a.1371.1371 0 0 1-.1368.1367H30.502a.1371.1371 0 0 1-.1368-.1367V19.5605a.1371.1371 0 0 0-.1367-.1367H27.2344a.1371.1371 0 0 1-.1367-.1367zM33.252 30.9648H30.748c-.0351 0-.0625-.041-.0625-.0918V27.1172c0-.0527.0274-.0938.0625-.0938h2.504c.0351 0 .0625.0411.0625.0938V30.873C33.3145 30.9238 33.2871 30.9648 33.252 30.9648zm.0625 2.65v3.7559c0 .0508-.0274.0937-.0625.0937H30.748c-.0351 0-.0625-.0429-.0625-.0937V33.6152c0-.0507.0274-.0937.0625-.0937h2.504C33.2871 33.5215 33.3145 33.5645 33.3145 33.6152zm-8.2832-6.498c0-.0527.0273-.0938.0625-.0938h2.5039c.0332 0 .0625.0411.0625.0938V30.873c0 .0508-.0293.0918-.0625.0918H25.0938c-.0352 0-.0625-.041-.0625-.0918zm0 6.498c0-.0507.0273-.0937.0625-.0937h2.5039c.0332 0 .0625.043.0625.0937v3.7559c0 .0508-.0293.0937-.0625.0937H25.0938c-.0352 0-.0625-.0429-.0625-.0937zm2.4472 8.7715c0-.0508.0567-.0937.1231-.0937h8.7968c.0664 0 .1231.0429.1231.0937V54.1973h-9.043zM17.82 5.9082H46.18a.2051.2051 0 0 1 .2051.2051V8.35a.207.207 0 0 1-.207.207H17.82a.2051.2051 0 0 1-.2051-.2051V6.1132A.205.205 0 0 1 17.82 5.9082z" class="color231f20 svgShape"/></svg>