<svg xmlns="http://www.w3.org/2000/svg" viewBox="0 0 20 20"><path fill="#50c6fd" d="m19.4 11.1-1.3-.7c-.2-.1-.4-.3-.5-.5l-1.7-4.3c-.1-.4-.5-.6-.9-.6h-3V2c0-.6-.4-1-1-1H1c-.6 0-1 .4-1 1v13c0 .6.4 1 1 1h1c0 1.7 1.3 3 3 3s3-1.3 3-3h3c0 1.7 1.3 3 3 3s3-1.3 3-3h2c.6 0 1-.4 1-1v-3c0-.4-.2-.7-.6-.9zM5 17c-.6 0-1-.4-1-1s.4-1 1-1 1 .4 1 1-.4 1-1 1zm4-8.4c0 .2-.2.4-.4.4H7v1.6c0 .2-.2.4-.4.4H5.4c-.2 0-.4-.2-.4-.4V9H3.4c-.2 0-.4-.2-.4-.4V7.4c0-.2.2-.4.4-.4H5V5.4c0-.2.2-.4.4-.4h1.2c.2 0 .4.2.4.4V7h1.6c.2 0 .4.2.4.4v1.2zM12 7h2.3l1.6 4H12V7zm2 10c-.6 0-1-.4-1-1s.4-1 1-1 1 .4 1 1-.4 1-1 1z" class="color033956 svgShape"/></svg>