<svg xmlns="http://www.w3.org/2000/svg" enable-background="new 0 0 64 64" viewBox="0 0 64 64"><switch><g fill="#26d7fe" class="color000000 svgShape"><path fill="#d85b53" d="M22.6,42c1.1,0,2.4-0.7,2.4-1.8v-2.5c6-2.7,10-8.9,10-16.2V4.8C35,3.1,33.8,2,32.1,2h-5.4
			c-0.5-1-1.5-1.9-2.7-1.9c-1.7,0-3,1.2-3,2.9v5c0,1.7,1.3,3,3,3c1.7,0,3-1.3,3-3h2v13.5C29,27.8,24,33,17.8,33c-0.1,0-0.2,0-0.4,0
			L17,33c-6-0.3-11-5.4-11-11.6V8h2c0,1.7,1.3,3,3,3c1.7,0,3-1.3,3-3V3c0-1.7-1.3-2.9-3-2.9C9.8,0.1,8.7,1,8.3,2H3.5
			C1.8,2,0,3.1,0,4.8v16.7C0,28.7,5,35,11,37.7v2.5c0,1.1,0.9,1.8,2,1.8h1v7.5c0,8,6.6,14.5,14.5,14.5C36.4,64,43,57.5,43,49.5V29.8
			c0-2.2,1.3-4.2,3.2-4.9c1.4,3.4,4.6,5.8,8.4,5.8c5,0,9.1-4.1,9.1-9.2s-4.1-9.2-9.1-9.2c-4.1,0-7.5,2.8-8.7,6.6
			c-5.1,1-8.9,5.6-8.9,11.1v19.8c0,4.7-4,8.5-8.5,8.5C24,58,20,54.2,20,49.5V42H22.6z M54.6,18.1c1.7,0,3.1,1.5,3.1,3.2
			c0,1.8-1.4,3.2-3.1,3.2c-1.7,0-3.1-1.5-3.1-3.2C51.5,19.5,52.9,18.1,54.6,18.1z" class="color231f20 svgShape"/></g></switch></svg>